<svg width="163" height="43" viewBox="0 0 163 43" fill="none" xmlns="http://www.w3.org/2000/svg">
<rect x="-0.757812" y="25.7422" width="28" height="4" rx="2" transform="rotate(-45 -0.757812 25.7422)" fill="#3A57E8"/>
<rect x="7.72656" y="34.2266" width="28" height="4" rx="2" transform="rotate(-45 7.72656 34.2266)" fill="#3A57E8"/>
<rect x="10.5352" y="22.8945" width="16" height="4" rx="2" transform="rotate(45 10.5352 22.8945)" fill="#3A57E8"/>
<rect x="10.5566" y="5.94531" width="28" height="4" rx="2" transform="rotate(45 10.5566 5.94531)" fill="#3A57E8"/>
<path d="M39.9063 34H42.8125V23.2656H55.6094V34H58.5156V10H55.6094V20.6875H42.8125V10H39.9063V34ZM71.2715 34.375C76.1465 34.375 79.4277 30.6719 79.4277 25.0937C79.4277 19.4687 76.1465 15.7656 71.2715 15.7656C66.3965 15.7656 63.1152 19.4687 63.1152 25.0937C63.1152 30.6719 66.3965 34.375 71.2715 34.375ZM71.2715 31.8906C67.5684 31.8906 65.8809 28.7031 65.8809 25.0937C65.8809 21.4844 67.5684 18.25 71.2715 18.25C74.9746 18.25 76.6621 21.4844 76.6621 25.0937C76.6621 28.7031 74.9746 31.8906 71.2715 31.8906ZM83.6494 40.75H86.415V31.2344H86.6494C87.2588 32.2187 88.4307 34.375 91.8994 34.375C96.3994 34.375 99.54 30.7656 99.54 25.0469C99.54 19.375 96.3994 15.7656 91.8525 15.7656C88.3369 15.7656 87.2588 17.9219 86.6494 18.8594H86.3213V16H83.6494V40.75ZM86.3682 25C86.3682 20.9687 88.1494 18.25 91.5244 18.25C95.04 18.25 96.7744 21.2031 96.7744 25C96.7744 28.8438 94.9932 31.8906 91.5244 31.8906C88.1963 31.8906 86.3682 29.0781 86.3682 25ZM111.306 34.375C114.962 34.375 117.634 32.5469 118.478 29.8281L115.806 29.0781C115.103 30.9531 113.474 31.8906 111.306 31.8906C108.06 31.8906 105.821 29.793 105.692 25.9375H118.759V24.7656C118.759 18.0625 114.774 15.7656 111.024 15.7656C106.149 15.7656 102.915 19.6094 102.915 25.1406C102.915 30.6719 106.103 34.375 111.306 34.375ZM105.692 23.5469C105.88 20.7461 107.86 18.25 111.024 18.25C114.024 18.25 115.946 20.5 115.946 23.5469H105.692ZM148.372 10V25.6563C148.372 29.1719 145.958 31.7031 141.95 31.7031C137.942 31.7031 135.528 29.1719 135.528 25.6563V10H132.622V25.8906C132.622 30.8125 136.302 34.4219 141.95 34.4219C147.599 34.4219 151.278 30.8125 151.278 25.8906V10H148.372ZM156.707 34H159.473V16H156.707V34ZM158.113 13C159.191 13 160.082 12.1563 160.082 11.125C160.082 10.0938 159.191 9.25 158.113 9.25C157.035 9.25 156.145 10.0938 156.145 11.125C156.145 12.1563 157.035 13 158.113 13Z" fill="#232D42"/>
</svg>
